<?xml version="1.0" encoding="utf-8"?>
<!-- Generator: Adobe Illustrator 24.1.1, SVG Export Plug-In . SVG Version: 6.00 Build 0)  -->
<svg version="1.1" id="Capa_1" xmlns="http://www.w3.org/2000/svg" xmlns:xlink="http://www.w3.org/1999/xlink" x="0px" y="0px"
	 viewBox="0 0 81.9 74.6" style="enable-background:new 0 0 81.9 74.6;" xml:space="preserve">
<style type="text/css">
	.st0{fill:#C4C4C3;}
	.st1{fill:#E12922;}
	.st2{fill:#000100;}
	.st3{fill:#FFFFFF;}
	.st4{fill:#1E120D;}
</style>
<g>
	<g>
		<g>
			<path class="st0" d="M76.3,58c4.3-0.9-8.8-2-16.6-2.2c-1.3,0-2.6-0.1-4-0.1c0,0,0.1,0,0.1,0c7.8,0.3,21.3,1.3,17.6,2
				c-3.8,0.8-13.1,1.2-20.9,0.9c-2.4-0.1-4.3-0.2-5.8-0.4c0,0,0,0,0,0c0,0-0.1,0-0.1,0c1.1,0.4,3.8,0.7,7.8,0.9
				C62.2,59.3,72,58.9,76.3,58z"/>
		</g>
		<g>
			<path class="st1" d="M11.8,8.5c3.3,0,5.6,0.3,6.9,1c1.3,0.7,2,1.5,2,2.4c0,0.5-0.1,1-0.3,1.6c-0.2,0.6-0.6,1.1-1.1,1.6
				c-0.5-0.4-1.3-0.7-2.5-1.1c-1.2-0.4-2.6-0.6-4.2-0.6c-2.1,0-3.7,0.4-4.9,1.3c-1.2,0.9-1.8,2-1.8,3.5c0,1.3,0.3,2.4,0.8,3.4
				c0.5,1,1.3,2.1,2.4,3.4l7.4,8.5c0.9,1.1,1.6,2.1,2.2,3c0.6,0.9,1.1,1.9,1.4,2.8c0.4,0.9,0.6,1.9,0.8,2.8c0.1,0.9,0.2,1.9,0.2,3
				c0,1.7-0.2,3.4-0.6,5c-0.4,1.6-1.1,2.9-2,4.1c-0.9,1.2-2.2,2.1-3.8,2.8c-1.6,0.7-3.5,1-5.8,1c-3.1,0-5.4-0.4-6.8-1.3
				C0.7,55.9,0,55,0,54c0-0.6,0.1-1.2,0.3-1.9c0.2-0.7,0.6-1.4,1.1-2.1c0.7,0.6,1.7,1.2,2.8,1.7c1.2,0.5,2.6,0.7,4.2,0.7
				c2.5,0,4.2-0.6,5.2-1.9c1-1.3,1.5-3,1.5-5.1c0-1.6-0.3-3-0.9-4.3c-0.6-1.3-1.6-2.9-3.1-4.6l-6.9-8.1c-1.6-1.9-2.6-3.7-3.3-5.2
				c-0.6-1.5-1-3.1-1-4.7c0-2.9,1-5.3,3-7.1C5,9.5,8,8.5,11.8,8.5z"/>
			<path class="st1" d="M41.7,53c0,1.2,0,2.2,0,2.9c0,0.7-0.1,1.2-0.1,1.5c-0.1,0.3-0.2,0.5-0.3,0.6c-0.1,0.1-0.4,0.1-0.6,0.1H24V10
				c0-0.2,0-0.4,0.1-0.6c0.1-0.1,0.2-0.3,0.4-0.4c0.2-0.1,0.4-0.2,0.7-0.2h16.8c0,1.2,0,2.1,0,2.8c0,0.7,0,1.2-0.1,1.6
				c-0.1,0.4-0.2,0.6-0.3,0.7c-0.1,0.1-0.4,0.1-0.6,0.1H29.7v14.8h10.5c0,1.1,0,2,0,2.7c0,0.7,0,1.2-0.1,1.6
				c-0.1,0.4-0.2,0.6-0.3,0.8c-0.1,0.1-0.4,0.2-0.6,0.2h-9.5V53H41.7z"/>
		</g>
		<rect x="0.1" y="60.9" class="st2" width="77.1" height="8.5"/>
		<g>
			
				<rect x="-0.7" y="64.7" transform="matrix(1.346219e-03 -1 1 1.346219e-03 -63.0281 67.2137)" class="st3" width="5.8" height="0.9"/>
			<polygon class="st3" points="8.5,66.9 5.3,62.3 4.1,62.3 4.1,68 5,68 5,63.4 8.3,68 8.3,68 9.5,68 9.5,62.3 8.6,62.3 			"/>
			<polygon class="st3" points="10.3,63.1 12.7,63.1 12.7,68 13.6,68 13.6,63.1 15.9,63.1 15.9,62.3 10.3,62.3 			"/>
			<polygon class="st3" points="17.8,65.5 20.9,65.5 20.9,64.7 17.8,64.7 17.8,63.1 21.1,63.1 21.1,62.3 16.8,62.3 16.8,68.1 
				21.2,68.1 21.2,67.3 17.8,67.3 			"/>
			<path class="st3" d="M27.3,66.6l0-0.1c-0.1-0.8-0.3-1.2-0.8-1.3c0.6-0.2,1-0.7,1-1.3c0-1.1-0.6-1.6-2.1-1.6l-2.8,0l0,5.8h0.9
				l0-2.5h1.5c1.1,0,1.2,0.3,1.3,0.6c0.1,0.3,0.1,0.5,0.2,0.8c0.1,0.4,0.1,0.8,0.2,1l0,0l1,0l0-0.1C27.4,67.6,27.4,67.2,27.3,66.6z
				 M23.5,63.1l1.7,0c0.9,0,1.3,0.2,1.3,0.8c0,0.6-0.4,0.8-1.3,0.8l-1.7,0L23.5,63.1z"/>
			<polygon class="st3" points="33.4,67 30.1,62.3 28.9,62.3 28.9,68.1 29.8,68.1 29.8,63.4 33.1,68 33.1,68.1 34.3,68.1 34.3,62.3 
				33.4,62.3 			"/>
			<path class="st3" d="M38,62.3l-2.9,5.7l1,0l0.7-1.5l3.3,0l0.7,1.5l1.1,0L39,62.3L38,62.3z M39.7,65.8l-2.5,0l1.3-2.6L39.7,65.8z"
				/>
			<polygon class="st3" points="41.5,63.1 43.8,63.2 43.8,68.1 44.7,68.1 44.7,63.2 47.1,63.2 47.1,62.3 41.5,62.3 			"/>
			
				<rect x="45.5" y="64.7" transform="matrix(1.654999e-03 -1 1 1.654999e-03 -16.9226 113.4583)" class="st3" width="5.8" height="0.9"/>
			<path class="st3" d="M53.3,62.2c-2.3,0-3.2,1.6-3.2,3c0,1.4,0.8,3,3.2,3c2.3,0,3.2-1.6,3.2-3C56.5,63.8,55.6,62.2,53.3,62.2z
				 M53.3,67.5c-1.3,0-2.2-0.9-2.2-2.2c0-1.3,0.9-2.2,2.2-2.2c1.3,0,2.2,0.9,2.2,2.2C55.5,66.6,54.6,67.5,53.3,67.5z"/>
			<polygon class="st3" points="62.2,67 59,62.3 57.8,62.3 57.8,68.1 58.7,68.1 58.7,63.4 62,68.1 63.2,68.1 63.2,62.3 62.2,62.3 
							"/>
			<path class="st3" d="M66.9,62.3L64,68.1h1l0.7-1.5l3.3,0l0.7,1.5h1.1l-2.9-5.8L66.9,62.3z M68.6,65.9l-2.5,0l1.3-2.6L68.6,65.9z"
				/>
			<polygon class="st3" points="72.7,67.3 72.7,62.3 71.8,62.3 71.8,68.1 75.9,68.1 75.9,67.3 			"/>
		</g>
		<g>
			<g>
				<g>
					<path class="st1" d="M76.9,16.6c-2.3-10.7-15.8-9.9-27-1c-1.8,1.5-3.6,3.2-5.2,5c0.1-0.1,0.1-0.1,0.2-0.2
						c11.2-9,24.4-10.8,26.5-1.4c2,9.4-5.4,24.3-16.6,33.2c-3.4,2.7-6.8,4.6-9.9,5.6c0,0,0,0,0,0c-0.1,0-0.1,0-0.2,0.1
						c4.5,0.8,10.3-1,16.1-5.7C72,43.3,79.2,27.3,76.9,16.6z"/>
				</g>
				<path class="st1" d="M80,2.3c0,1.3-1,2.3-2.3,2.3c-1.3,0-2.3-1-2.3-2.3c0-1.3,1-2.3,2.3-2.3C78.9,0,80,1,80,2.3z"/>
				<path class="st1" d="M70.1,8.5c-2.1-1.8-3-3.6-2-4.6c1.3-1.3,5.3-0.6,9,1.5c3.7,2.1,5.6,4.9,4.4,6.2c-0.9,0.9-3.1,0.8-5.6,0
					c1.3,0.3,2.4,0.2,2.9-0.3c0.9-0.9-0.5-2.9-3.1-4.3c-2.6-1.5-5.4-2-6.3-1.1C68.9,6.5,69.2,7.5,70.1,8.5L70.1,8.5z"/>
			</g>
			<path class="st1" d="M51.5,16.1c-1.1-0.1-2.3,0.4-3.5,1.5c0.2,0,0.4,0,0.7,0c0.1,0,0.1,0,0.2,0c0.6-0.3,1.3-0.4,1.8-0.4
				c4.4,0.3,5.6,10.3,2.8,22.3C52,46.1,48.4,54.2,45.7,58c3-3.8,6.9-12.4,8.7-19.7C57.2,26.4,55.9,16.4,51.5,16.1z"/>
		</g>
	</g>
	<g>
		<path class="st4" d="M46.6,74.1c-0.3,0.3-0.6,0.5-0.9,0.5c-0.3,0-0.5-0.1-0.7-0.3c-0.2-0.2-0.3-0.5-0.3-0.9c0-0.3,0.1-0.7,0.2-0.9
			c0.1-0.3,0.3-0.5,0.5-0.6c0.2-0.1,0.4-0.2,0.6-0.2c0.4,0,0.6,0.2,0.8,0.5l0.3-1.5h0.5L47,74.5h-0.5L46.6,74.1z M45.3,73.4l0,0.1
			c0,0.2,0.1,0.4,0.2,0.6c0.1,0.1,0.2,0.2,0.4,0.2c0.2,0,0.4-0.1,0.6-0.3c0.2-0.3,0.4-0.7,0.4-1.1c0-0.2-0.1-0.4-0.2-0.5
			c-0.1-0.1-0.3-0.2-0.4-0.2c-0.2,0-0.3,0.1-0.5,0.2c-0.1,0.1-0.3,0.3-0.3,0.5C45.3,73,45.3,73.2,45.3,73.4z"/>
		<path class="st4" d="M49.8,73.6l0.5,0c-0.1,0.3-0.3,0.5-0.5,0.7c-0.2,0.2-0.5,0.3-0.8,0.3c-0.2,0-0.4,0-0.6-0.1
			c-0.2-0.1-0.3-0.2-0.4-0.4c-0.1-0.2-0.2-0.4-0.2-0.6c0-0.3,0.1-0.6,0.2-0.9c0.2-0.3,0.3-0.5,0.6-0.6c0.2-0.1,0.5-0.2,0.7-0.2
			c0.3,0,0.6,0.1,0.8,0.3c0.2,0.2,0.3,0.5,0.3,0.9c0,0.1,0,0.3,0,0.4h-2.1c0,0.1,0,0.1,0,0.2c0,0.3,0.1,0.5,0.2,0.6
			c0.1,0.1,0.3,0.2,0.4,0.2c0.2,0,0.3-0.1,0.5-0.2C49.6,73.9,49.7,73.8,49.8,73.6z M48.4,72.9H50v-0.1c0-0.3-0.1-0.4-0.2-0.6
			c-0.1-0.1-0.3-0.2-0.5-0.2c-0.2,0-0.4,0.1-0.6,0.2S48.5,72.6,48.4,72.9z"/>
		<path class="st4" d="M55.4,73.2l0.5,0.1c-0.2,0.5-0.4,0.8-0.7,1c-0.3,0.2-0.7,0.3-1,0.3c-0.5,0-0.8-0.1-1.1-0.4
			c-0.3-0.3-0.4-0.7-0.4-1.2c0-0.6,0.2-1.2,0.5-1.6c0.4-0.5,0.9-0.7,1.5-0.7c0.4,0,0.7,0.1,1,0.3c0.3,0.2,0.4,0.5,0.5,0.9l-0.5,0
			c-0.1-0.6-0.4-0.8-0.9-0.8c-0.5,0-0.8,0.2-1.1,0.6c-0.3,0.4-0.4,0.8-0.4,1.4c0,0.4,0.1,0.7,0.3,0.9c0.2,0.2,0.5,0.3,0.8,0.3
			c0.3,0,0.5-0.1,0.7-0.2C55.2,73.7,55.3,73.5,55.4,73.2z"/>
		<path class="st4" d="M56.4,73.5c0-0.5,0.1-0.9,0.4-1.3c0.3-0.3,0.7-0.5,1.1-0.5c0.3,0,0.6,0.1,0.8,0.3c0.2,0.2,0.3,0.5,0.3,0.9
			c0,0.3-0.1,0.7-0.2,0.9c-0.1,0.3-0.3,0.5-0.6,0.6c-0.2,0.1-0.5,0.2-0.7,0.2c-0.3,0-0.6-0.1-0.8-0.3C56.5,74.1,56.4,73.8,56.4,73.5
			z M56.8,73.4c0,0.3,0.1,0.5,0.2,0.6c0.1,0.1,0.3,0.2,0.5,0.2c0.2,0,0.3-0.1,0.5-0.2c0.2-0.1,0.3-0.3,0.4-0.5
			c0.1-0.2,0.2-0.5,0.2-0.7c0-0.3-0.1-0.5-0.2-0.6c-0.1-0.1-0.3-0.2-0.5-0.2c-0.2,0-0.3,0.1-0.5,0.2c-0.2,0.1-0.3,0.3-0.4,0.5
			C56.9,72.9,56.8,73.2,56.8,73.4z"/>
		<path class="st4" d="M59.3,74.5l0.8-3.9h0.5l-0.8,3.9H59.3z"/>
		<path class="st4" d="M60.6,73.5c0-0.5,0.1-0.9,0.4-1.3c0.3-0.3,0.7-0.5,1.1-0.5c0.3,0,0.6,0.1,0.8,0.3c0.2,0.2,0.3,0.5,0.3,0.9
			c0,0.3-0.1,0.7-0.2,0.9c-0.1,0.3-0.3,0.5-0.6,0.6c-0.2,0.1-0.5,0.2-0.7,0.2c-0.3,0-0.6-0.1-0.8-0.3C60.7,74.1,60.6,73.8,60.6,73.5
			z M61.1,73.4c0,0.3,0.1,0.5,0.2,0.6c0.1,0.1,0.3,0.2,0.5,0.2c0.2,0,0.3-0.1,0.5-0.2c0.2-0.1,0.3-0.3,0.4-0.5
			c0.1-0.2,0.2-0.5,0.2-0.7c0-0.3-0.1-0.5-0.2-0.6c-0.1-0.1-0.3-0.2-0.5-0.2c-0.2,0-0.3,0.1-0.5,0.2c-0.2,0.1-0.3,0.3-0.4,0.5
			C61.2,72.9,61.1,73.2,61.1,73.4z"/>
		<path class="st4" d="M63.6,74.5l0.6-2.8h0.5l-0.1,0.5c0.2-0.2,0.4-0.3,0.5-0.4c0.1-0.1,0.3-0.1,0.5-0.1c0.2,0,0.3,0,0.4,0.1
			c0.1,0.1,0.2,0.2,0.2,0.4c0.1-0.2,0.3-0.3,0.5-0.4c0.2-0.1,0.3-0.1,0.5-0.1c0.2,0,0.4,0.1,0.5,0.2c0.1,0.1,0.2,0.3,0.2,0.5
			c0,0.1,0,0.2-0.1,0.4l-0.4,1.8h-0.5l0.4-1.9c0-0.2,0.1-0.3,0.1-0.3c0-0.1,0-0.2-0.1-0.2c-0.1-0.1-0.1-0.1-0.2-0.1
			c-0.1,0-0.3,0-0.4,0.1c-0.1,0.1-0.3,0.2-0.4,0.3c-0.1,0.1-0.2,0.4-0.2,0.7l-0.3,1.4h-0.5l0.4-1.9c0-0.1,0-0.2,0-0.3
			c0-0.1,0-0.2-0.1-0.2c-0.1-0.1-0.1-0.1-0.2-0.1c-0.2,0-0.4,0.1-0.6,0.3c-0.2,0.2-0.3,0.5-0.4,0.9l-0.3,1.3H63.6z"/>
		<path class="st4" d="M68.2,74.5l0.8-3.9h0.5L69.2,72c0.2-0.1,0.3-0.2,0.4-0.3c0.1-0.1,0.3-0.1,0.4-0.1c0.3,0,0.5,0.1,0.7,0.3
			c0.2,0.2,0.3,0.5,0.3,0.9c0,0.4-0.1,0.7-0.2,1c-0.1,0.3-0.3,0.5-0.5,0.6c-0.2,0.1-0.4,0.2-0.6,0.2c-0.4,0-0.7-0.2-0.8-0.6
			l-0.1,0.5H68.2z M68.9,73.4l0,0.1c0,0.2,0.1,0.4,0.2,0.5c0.1,0.1,0.3,0.2,0.4,0.2c0.1,0,0.3,0,0.4-0.1c0.1-0.1,0.3-0.3,0.4-0.5
			c0.1-0.2,0.2-0.5,0.2-0.7c0-0.3-0.1-0.4-0.2-0.6C70.1,72.1,70,72,69.8,72c-0.2,0-0.3,0.1-0.5,0.2c-0.1,0.1-0.3,0.3-0.4,0.6
			C68.9,73.1,68.9,73.2,68.9,73.4z"/>
		<path class="st4" d="M71.2,74.5l0.6-2.8h0.5l-0.6,2.8H71.2z M71.9,71.2l0.1-0.5h0.5l-0.1,0.5H71.9z"/>
		<path class="st4" d="M74.3,74.2c-0.2,0.2-0.3,0.3-0.5,0.3c-0.2,0.1-0.3,0.1-0.5,0.1c-0.3,0-0.5-0.1-0.6-0.2
			c-0.2-0.1-0.2-0.3-0.2-0.6c0-0.2,0-0.3,0.1-0.5c0.1-0.1,0.2-0.2,0.4-0.3c0.2-0.1,0.4-0.1,0.8-0.1c0.3,0,0.5,0,0.6,0
			c0.1,0,0.2,0,0.3-0.1c0-0.1,0.1-0.2,0.1-0.3c0-0.1-0.1-0.2-0.2-0.3c-0.1-0.1-0.3-0.1-0.5-0.1c-0.4,0-0.7,0.2-0.8,0.5l-0.5,0
			c0.2-0.6,0.7-0.9,1.3-0.9c0.3,0,0.6,0.1,0.8,0.2c0.2,0.1,0.3,0.3,0.3,0.5c0,0.1,0,0.3-0.1,0.5l-0.2,0.7c-0.1,0.2-0.1,0.4-0.1,0.5
			c0,0.1,0,0.2,0.1,0.4h-0.5C74.4,74.4,74.4,74.3,74.3,74.2z M74.6,73.1c-0.1,0-0.3,0.1-0.6,0.1c-0.3,0-0.5,0.1-0.6,0.1
			c-0.1,0-0.2,0.1-0.3,0.2C73,73.6,73,73.7,73,73.8c0,0.1,0,0.3,0.1,0.3c0.1,0.1,0.2,0.1,0.4,0.1c0.2,0,0.3,0,0.5-0.1
			c0.1-0.1,0.3-0.2,0.4-0.3C74.4,73.6,74.5,73.4,74.6,73.1z"/>
	</g>
</g>
</svg>
